<svg width="16" height="9" viewBox="0 0 16 9" fill="none" xmlns="http://www.w3.org/2000/svg">
<path d="M15.6838 0.311778C15.473 0.103926 15.2234 0 14.935 0C14.6472 0 14.3979 0.103926 14.1871 0.311778L8.01054 6.40185L1.81291 0.290993C1.61616 0.0969976 1.37022 0 1.0751 0C0.779974 0 0.527009 0.103926 0.316206 0.311778C0.105402 0.51963 0 0.765727 0 1.05007C0 1.33386 0.105402 1.57968 0.316206 1.78753L7.42029 8.77136C7.50461 8.8545 7.59596 8.91353 7.69433 8.94845C7.79271 8.98282 7.89811 9 8.01054 9C8.12297 9 8.22837 8.98282 8.32675 8.94845C8.42512 8.91353 8.51647 8.8545 8.60079 8.77136L15.7049 1.76674C15.9016 1.57275 16 1.33386 16 1.05007C16 0.765727 15.8946 0.51963 15.6838 0.311778Z" fill="#999999"/>
</svg>
